<svg width="52" height="52" viewBox="0 0 52 52" fill="none" xmlns="http://www.w3.org/2000/svg">
<g clip-path="url(#clip0)">
<path d="M26 1.08331C11.635 1.08331 -7.62939e-06 12.5233 -7.62939e-06 26.6326C-7.62939e-06 37.9231 7.44899 47.4976 17.7775 50.8733C19.0775 51.1138 19.5542 50.323 19.5542 49.6448C19.5542 49.0381 19.5325 47.4305 19.5217 45.3007C12.2893 46.8411 10.764 41.873 10.764 41.873C9.58099 38.9241 7.87149 38.1355 7.87149 38.1355C5.51633 36.5516 8.05349 36.5841 8.05349 36.5841C10.6643 36.7618 12.0358 39.2166 12.0358 39.2166C14.3542 43.1231 18.122 41.9943 19.6083 41.3421C19.8423 39.689 20.5118 38.5645 21.255 37.9253C15.4808 37.2861 9.41199 35.0891 9.41199 25.3001C9.41199 22.5116 10.4195 20.2323 12.0878 18.4448C11.7953 17.7991 10.9178 15.2013 12.3153 11.6826C12.3153 11.6826 14.4928 10.998 19.4653 14.3021C21.5453 13.7345 23.7553 13.4528 25.9653 13.4398C28.1753 13.4528 30.3853 13.7345 32.4653 14.3021C37.4053 10.998 39.5828 11.6826 39.5828 11.6826C40.9803 15.2013 40.1028 17.7991 39.8428 18.4448C41.5003 20.2323 42.5078 22.5116 42.5078 25.3001C42.5078 35.1151 36.4303 37.2753 30.6453 37.9036C31.5553 38.6706 32.4003 40.2371 32.4003 42.6313C32.4003 46.0503 32.3678 48.7976 32.3678 49.6275C32.3678 50.297 32.8228 51.0965 34.1553 50.8408C44.5575 47.4868 52 37.9058 52 26.6326C52 12.5233 40.3585 1.08331 26 1.08331Z" fill="#383838"/>
</g>
<defs>
<clipPath id="clip0">
<rect width="52" height="52" fill="white"/>
</clipPath>
</defs>
</svg>
