<svg width="50" height="50" viewBox="0 0 50 50" fill="none" xmlns="http://www.w3.org/2000/svg">
<path d="M25 50C38.8071 50 50 38.8071 50 25C50 11.1929 38.8071 0 25 0C11.1929 0 0 11.1929 0 25C0 38.8071 11.1929 50 25 50Z" fill="#2C79C0"/>
<path d="M34.2617 8.96735H15.7383C12.0048 8.96735 8.96736 12.0047 8.96736 15.7382V34.2619C8.96736 37.9954 12.0048 41.0328 15.7383 41.0328H34.2619C37.9954 41.0328 41.0328 37.9954 41.0328 34.2619V15.7382C41.0326 12.0047 37.9952 8.96735 34.2617 8.96735ZM39.4021 34.2617C39.4021 37.0961 37.0962 39.4021 34.2617 39.4021H15.7383C12.9038 39.4021 10.5978 37.0961 10.5978 34.2617V15.7382C10.5978 12.9038 12.9038 10.5978 15.7383 10.5978H34.2619C37.0964 10.5978 39.4023 12.9038 39.4023 15.7382V34.2617H39.4021Z" fill="white"/>
<path d="M25 16.576C20.355 16.576 16.5761 20.355 16.5761 25C16.5761 29.645 20.355 33.4239 25 33.4239C29.645 33.4239 33.4239 29.645 33.4239 25C33.4239 20.355 29.645 16.576 25 16.576ZM25 31.7934C21.2541 31.7934 18.2065 28.7458 18.2065 25C18.2065 21.2542 21.2542 18.2065 25 18.2065C28.7458 18.2065 31.7934 21.2542 31.7934 25C31.7934 28.7458 28.7459 31.7934 25 31.7934Z" fill="white"/>
<path d="M33.6956 17.3912C34.8962 17.3912 35.8695 16.4179 35.8695 15.2173C35.8695 14.0167 34.8962 13.0434 33.6956 13.0434C32.495 13.0434 31.5217 14.0167 31.5217 15.2173C31.5217 16.4179 32.495 17.3912 33.6956 17.3912Z" fill="white"/>
</svg>
