<svg width="52" height="52" viewBox="0 0 52 52" fill="none" xmlns="http://www.w3.org/2000/svg">
<path d="M0 52L4.472 38.5849C2.20283 34.7683 0.896552 30.3142 0.896552 25.5517C0.896552 11.44 12.3366 0 26.4483 0C40.56 0 52 11.44 52 25.5517C52 39.6634 40.56 51.1034 26.4483 51.1034C22.1547 51.1034 18.1112 50.0392 14.56 48.169L0 52Z" fill="#5CC76D"/>
<path d="M42.7503 34.0555C41.5704 31.8258 37.2195 29.276 37.2195 29.276C36.235 28.7147 35.0471 28.652 34.4859 29.6525C34.4859 29.6525 33.072 31.3479 32.7125 31.5918C31.07 32.7044 29.5486 32.6614 28.0128 31.1256L24.4436 27.5564L20.8744 23.9872C19.3386 22.4514 19.2956 20.93 20.4082 19.2875C20.6521 18.928 22.3475 17.5141 22.3475 17.5141C23.348 16.952 23.2852 15.765 22.724 14.7805C22.724 14.7805 20.1742 10.4296 17.9445 9.24971C16.9959 8.74764 15.8313 8.92337 15.0728 9.68185L13.4967 11.258C8.49663 16.2581 10.9586 21.9027 15.9586 26.9028L20.5284 31.4725L25.0981 36.0423C30.0981 41.0423 35.7428 43.5043 40.7429 38.5042L42.319 36.9281C43.0775 36.1678 43.2523 35.0032 42.7503 34.0555Z" fill="white"/>
</svg>
