<svg width="50" height="50" viewBox="0 0 50 50" fill="none" xmlns="http://www.w3.org/2000/svg">
<path d="M25 50C38.8071 50 50 38.8071 50 25C50 11.1929 38.8071 0 25 0C11.1929 0 0 11.1929 0 25C0 38.8071 11.1929 50 25 50Z" fill="#5F98D1"/>
<path d="M8.61494 15.2816V34.6978L18.0835 24.9504L8.61494 15.2816Z" fill="white"/>
<path d="M41.3851 15.2816V34.6978L31.9636 24.9897L41.3851 15.2816Z" fill="white"/>
<path d="M9.33184 14.4009H40.6067L28.3152 27.1996C27.4404 28.1104 26.2321 28.6253 24.9693 28.6253C23.7065 28.6253 22.4982 28.1104 21.6234 27.1996L9.33184 14.4009Z" fill="white"/>
<path d="M29.0243 27.8804C27.9697 28.9784 26.4918 29.6083 24.9693 29.6083C23.447 29.6083 21.969 28.9786 20.9145 27.8805L18.8296 25.7096L9.33184 35.599H40.6067L31.1091 25.7096L29.0243 27.8804Z" fill="white"/>
</svg>
