<svg width="50" height="50" viewBox="0 0 50 50" fill="none" xmlns="http://www.w3.org/2000/svg">
<path d="M25.0008 49.9996C38.8078 49.9996 50.0006 38.8068 50.0006 24.9998C50.0006 11.1928 38.8078 0 25.0008 0C11.1938 0 0.000999928 11.1928 0.000999928 24.9998C0.000999928 38.8068 11.1938 49.9996 25.0008 49.9996Z" fill="#69AADB"/>
<path d="M40.3135 17.9666C39.2422 18.4416 38.0897 18.7629 36.8811 18.9064C38.1151 18.1671 39.0621 16.9973 39.5091 15.6011C38.3544 16.2861 37.075 16.783 35.7144 17.0508C34.6244 15.8899 33.0713 15.1644 31.3516 15.1644C28.052 15.1644 25.3759 17.8405 25.3759 21.14C25.3759 21.6084 25.429 22.0643 25.5315 22.5019C20.5652 22.2528 16.1618 19.8739 13.2143 16.2575C12.7 17.1399 12.405 18.1671 12.405 19.2621C12.405 21.3348 13.4607 23.1646 15.0633 24.2359C14.0842 24.2052 13.1621 23.9364 12.3569 23.4877C12.3564 23.5131 12.3564 23.5385 12.3564 23.5634C12.3564 26.4588 14.4171 28.8737 17.1502 29.4223C16.6493 29.5596 16.1203 29.6322 15.5762 29.6322C15.1903 29.6322 14.8164 29.5952 14.4518 29.5257C15.2121 31.8992 17.4185 33.627 20.034 33.6756C17.9885 35.2785 15.4122 36.2336 12.6118 36.2336C12.1305 36.2336 11.6536 36.2055 11.187 36.1498C13.8302 37.8459 16.972 38.8348 20.3464 38.8348C31.3378 38.8348 37.3486 29.7294 37.3486 21.8321C37.3486 21.5732 37.3428 21.3152 37.3312 21.0594C38.4997 20.2171 39.5127 19.1649 40.3135 17.9666Z" fill="#F1F2F2"/>
</svg>
