<svg width="350" height="350" viewBox="0 0 350 350" fill="none" xmlns="http://www.w3.org/2000/svg">
<rect width="350" height="350" fill="#DC3545"/>
<rect x="25" y="25" width="300" height="300" fill="#1F1D1D"/>
<path d="M97.3138 188.378C78.7581 150.072 85.0653 94 85.0653 94C85.0653 94 141.746 120.912 162.476 162.587C177.633 193.058 173.575 258.595 173.575 258.595C173.575 258.595 118.489 232.092 97.3138 188.378Z" fill="#AEAEAE"/>
<path d="M143.496 162.636C144.629 141.9 153.198 120.142 161.604 103.436C165.792 95.1117 169.911 88.1005 172.98 83.1734C174.164 81.2717 175.192 79.6819 176.005 78.4483C176.937 79.8558 178.147 81.7297 179.551 84.007C182.91 89.4578 187.37 97.2072 191.764 106.392C200.585 124.828 209.001 148.755 208.002 171.39C207.278 187.807 198.315 209.725 189.302 227.82C184.827 236.805 180.396 244.74 177.083 250.429C175.711 252.785 174.532 254.754 173.622 256.251C172.747 254.9 171.638 253.143 170.364 251.029C167.128 245.658 162.838 237.992 158.631 228.829C150.192 210.448 142.204 186.293 143.496 162.636Z" fill="#AEAEAE" stroke="#1F1D1D" stroke-width="5"/>
<path d="M191.033 159.332C201.428 141.352 218.915 125.828 233.971 114.735C241.474 109.207 248.319 104.818 253.285 101.813C255.202 100.654 256.838 99.7009 258.122 98.9692C258.316 100.646 258.547 102.865 258.768 105.531C259.297 111.912 259.767 120.84 259.529 131.019C259.052 151.451 255.729 176.597 244.595 196.329C236.52 210.641 218.608 226.13 202.383 238.188C194.326 244.175 186.783 249.246 181.255 252.819C178.965 254.3 177.022 255.522 175.534 256.445C175.364 254.844 175.17 252.776 174.991 250.314C174.536 244.06 174.18 235.282 174.575 225.208C175.368 204.998 179.175 179.843 191.033 159.332Z" fill="#AEAEAE" stroke="#1F1D1D" stroke-width="5"/>
</svg>
